<svg xmlns="http://www.w3.org/2000/svg" width="150" height="150" style="overflow: visible;" viewBox="0 0 512 512" data-svgdocument="" id="_b5Sg20kDOcahiWCYEt4bJ" class="fl-svgdocument" x="0" y="0" xmlns:xlink="http://www.w3.org/1999/xlink" overflow="hidden"><defs id="_QkHTH4H5-NjjBu50IfmF-" transform="matrix(1.2307692766189575, 0, 0, 1.2307692766189575, -59.07691955566406, -59.0768928527832)" data-uid="o_em9jnccg3_4"></defs><path id="_N85iwuhGy8gx870Id4ZGK" d="M30.602,67.798v8.694c8.648,3.896,19,6.004,29.897,6.004c12.353,0,24.006-2.706,33.268-7.659V66.24  c7.583-3.445,12.841-10.936,12.841-19.627c0-11.956-9.944-21.647-22.212-21.647c-3.231,0-6.299,0.678-9.069,1.888  c-3.921-3.663-9.184-5.908-14.974-5.908c-5.706,0-10.901,2.178-14.804,5.747c-2.801-1.297-5.919-2.026-9.209-2.026  c-12.122,0-21.947,9.826-21.947,21.947C14.392,56.75,21.264,65.275,30.602,67.798z" fill="#083b66" transform="matrix(3.2401933670043945, 0, 0, 3.7428882122039795, 46.104129791259766, 11.713607788085938)" data-uid="o_em9jnccg3_5"></path><path id="_2ab-mc5Jzgu4bBQZPdd0U" d="M60.5,87.458c-10.751,0-21.044-1.949-29.897-5.57v3.501c0,3.653,5.667,6.615,12.659,6.615h37.846  c6.993,0,12.66-2.961,12.66-6.615v-4.992C84.208,84.976,72.645,87.458,60.5,87.458z" fill="#cf1717" transform="matrix(3.2401933670043945, 0, 0, 3.7428882122039795, 46.02325439453125, 11.820528984069824)" data-uid="o_em9jnccg3_6"></path><g id="_AqpBWJFPOxiDaBIcdM8Sv" transform="matrix(1.0000001192092896, 0, 0, 1.0000001192092896, -0.000011858588550239801, 0.00001153977973444853)" data-uid="o_em9jnccg3_7"><path id="_pNkoqW1jhRObFV-raxRXD" d="M94.056,15.135c-0.812-2.56-3.54-3.973-6.094-3.156l-6.06,1.94v10.213l9.01-2.883   C93.462,20.432,94.872,17.694,94.056,15.135z" fill="#ffffff" transform="matrix(2.006962776184082, 0.9358845949172974, -0.9358845949172974, 2.006962776184082, 212.7448272705078, 60.5418815612793)" data-uid="o_em9jnccg3_8"></path><path id="_pMYef62oXkO-qxbt9szcm" d="M41.139,66.938V61.85l-0.016-0.009c0,0,0.01-0.063,0.016-0.191v-0.704c-0.061-1.582-0.528-5.237-3.173-10.83   c-1.343-2.839-3.858-5.354-5.103-6.491l7.634-15.285c1.432-3.087,0.105-6.755-2.966-8.197c-3.071-1.438-4.103-0.292-5.967,2.982   L19.15,43.599l-0.063,0.146l-2.128,3.465l4.427,27.432L6.272,100h37.804l7.412-12.31c3.3-0.587,10.607-2.689,18.528-10.162   c0.78-0.736,1.333-1.543,2.003-2.569H48.824C44.489,74.959,41.139,71.298,41.139,66.938z" fill="#ffffff" transform="matrix(2.006962776184082, 0.9358845949172974, -0.9358845949172974, 2.006962776184082, 211.4423828125, 60.79533767700195)" data-uid="o_em9jnccg3_9"></path><path id="_qb5TlrhJUgSAgOlw9HgKU" d="M88.609,28.578h-6.707v9.527h6.707c2.61,0,4.726-2.134,4.726-4.764S91.22,28.578,88.609,28.578z" fill="#ffffff" transform="matrix(2.006962776184082, 0.9358845949172974, -0.9358845949172974, 2.006962776184082, 211.10218811035156, 60.7080192565918)" data-uid="o_em9jnccg3_10"></path><path id="_21ESgZ8LkF_J8V-AVp-aZ" d="M85.924,40.01h-4.021v9.527h4.021c2.689,0,4.871-2.133,4.871-4.763C90.795,42.145,88.613,40.01,85.924,40.01z" fill="#ffffff" transform="matrix(2.006962776184082, 0.9358845949172974, -0.9358845949172974, 2.006962776184082, 211.5623016357422, 60.92341995239258)" data-uid="o_em9jnccg3_11"></path><path id="_CaDYawiQbV6GXg4QGmDV_" d="M83.452,51.443h-1.55v9.527h1.55c2.651,0,4.802-2.135,4.802-4.764C88.254,53.577,86.104,51.443,83.452,51.443z" fill="#ffffff" transform="matrix(2.006962776184082, 0.9358845949172974, -0.9358845949172974, 2.006962776184082, 211.0206756591797, 60.67073059082031)" data-uid="o_em9jnccg3_12"></path><path id="_wpeCnY29x5WC_6gvd8ed5" fill-rule="evenodd" clip-rule="evenodd" d="M76.999,62.615H46.785V6.983h30.214V62.615z M61.736,69.605  c-1.134,0-2.051-0.928-2.051-2.067c0-1.141,0.917-2.064,2.051-2.064c1.131,0,2.049,0.924,2.049,2.064  C63.785,68.678,62.867,69.605,61.736,69.605z M58.742,3.331h6.52c0.435,0,0.791,0.355,0.791,0.793c0,0.438-0.356,0.794-0.791,0.794  h-6.52c-0.436,0-0.788-0.356-0.788-0.794C57.954,3.687,58.307,3.331,58.742,3.331z M74.322,1.584H49.148  c-3.132,0-5.672,2.56-5.672,5.716v59.701c0,3.16,2.54,5.72,5.672,5.72h25.174c3.134,0,5.675-2.56,5.675-5.72V7.3  C79.997,4.144,77.453,1.584,74.322,1.584z" fill="#ffffff" transform="matrix(2.006962776184082, 0.9358845949172974, -0.9358845949172974, 2.006962776184082, 211.370849609375, 60.35666275024414)" data-uid="o_em9jnccg3_13"></path><path id="_O8kbUc7Ep9fjd-dUXRhFn" d="M72.014,12.294C55.533-4.187,28.902-4.053,12.42,12.428C-4.062,28.909-4.179,55.599,12.303,70.392L42.082,100l29.843-29.843  C88.406,55.365,88.497,28.776,72.014,12.294z M51.843,65.115V54.099h1.931c0.789-9,1.167-14.946,1.136-16.871  c-0.031-5.928-1.246-10.201-3.58-12.597c-0.947-1.01-2.486-1.734-3.486-1.955v30.957l0,0v12.901c-2,0.526-4.067,0.808-6.27,0.808  c-1.305,0-1.73-0.099-3.73-0.289V46.47c0-0.946,1.078-2.058,2.717-3.335s2.668-2.909,2.668-4.896c0-5.393-0.386-10.715-3.386-15.563  v13.423h-2v-13h-3v13h-2V22.676c-2,4.536-3.51,10.17-3.51,15.563c0,1.987,0.616,3.619,2.255,4.896s2.255,2.389,2.255,3.335v19.627  c-10-3.31-17.286-12.865-17.286-24.145c0-14.022,11.491-25.39,25.514-25.39c14.021,0,25.077,11.368,25.077,25.39  C67.149,52.269,60.843,61.141,51.843,65.115z" fill="#ffffff" transform="matrix(0.6550217866897583, 0.29158085584640503, -0.29158085584640503, 0.6550217866897583, 287.7521667480469, 148.06227111816406)" data-uid="o_em9jnccg3_14"></path></g><path id="_hdfKNxVY668ZRUyiv1Ssc" fill="#083b66" transform="matrix(0.6672012805938721, 0, 0, 0.6672012805938721, 254.23191833496094, 405.20782470703125)" text="ALP" text-anchor="middle" font-size="100" letter-spacing="0" side="left" offset="0.5" dx="0" dy="0" space="preserve" href="" font-family="Lobster" font-scale="contain" x="0" y="0" data-fl-textpath="" data-uid="o_em9jnccg3_15" d="M-59.2 11.4Q-62.9 11.4 -65.7 10.8Q-68.5 10.2 -70.55 7.9Q-72.6 5.6 -72.6 0.8L-72.6 0.8Q-72.6-5.9 -68.55-17.2Q-64.5-28.5 -57.9-39.9L-57.9-39.9Q-62.9-39.6 -65.8-38.4Q-68.7-37.2 -69.6-34.7L-69.6-34.7Q-69.2-34.7 -68.75-33.7Q-68.3-32.7 -68.3-31.6L-68.3-31.6Q-68.3-29.8 -69.9-28.75Q-71.5-27.7 -73.9-27.7L-73.9-27.7Q-76.7-27.7 -78.4-29.2Q-80.1-30.7 -80.1-33.5L-80.1-33.5Q-80.1-36.9 -77.45-39.7Q-74.8-42.5 -70.1-44.15Q-65.4-45.8 -59.7-45.8L-59.7-45.8Q-57.6-45.8 -54.5-45.5L-54.5-45.5Q-46.3-58.5 -37.15-66.75Q-28-75 -19.700000000000003-75L-19.700000000000003-75Q-14.900000000000006-75 -11.799999999999997-73.6L-11.799999999999997-73.6L-27.5 0L-41.9 0L-34.2-36.3Q-37.9-38 -41-38.8Q-44.1-39.6 -47.6-39.9L-47.6-39.9Q-53.3-27.6 -56.95-14.75Q-60.6-1.9 -60.6 5.8L-60.6 5.8Q-60.6 9.6 -59.2 11.4L-59.2 11.4ZM-33.3-40.7L-27.5-67.9Q-31.799999999999997-65.6 -36.45-59.35Q-41.1-53.1 -45.5-44.2L-45.5-44.2Q-38.3-42.8 -33.3-40.7L-33.3-40.7ZM 41.699999999999996 25Q 37.199999999999996 25  32.849999999999994 22.45Q 28.5 19.9  21.799999999999997 14.6L 21.799999999999997 14.6Q 16.799999999999997 10.6  13.249999999999996 8.15Q 9.699999999999996 5.7  5.549999999999997 4Q 1.3999999999999968 2.3 -2.900000000000002 2.3L-2.900000000000002 2.3Q-4.400000000000002 2.3 -5.200000000000003 2.4L-5.200000000000003 2.4L 9.699999999999996-66.9Q 2.9999999999999964-64.2 -0.6500000000000021-58.65Q-4.3000000000000025-53.1 -4.3000000000000025-45.1L-4.3000000000000025-45.1Q-4.3000000000000025-41.4 -3.600000000000003-39.95Q-2.900000000000002-38.5 -2.900000000000002-38.3L-2.900000000000002-38.3Q-8.300000000000002-38.3 -10.950000000000003-40.55Q-13.600000000000003-42.8 -13.600000000000003-48L-13.600000000000003-48Q-13.600000000000003-54.4 -8.350000000000003-60.45Q-3.100000000000003-66.5  5.099999999999998-70.25Q 13.299999999999997-74  21.5-74L 21.5-74Q 22.9-74  25.5-73.8L 25.5-73.8L 10.099999999999998-2Q 12.899999999999999-1.3  15.849999999999998 0.05Q 18.799999999999997 1.4  23 3.7L 23 3.7Q 29.5 7.2  34.099999999999994 9.05Q 38.699999999999996 10.9  43.699999999999996 10.9L 43.699999999999996 10.9Q 48.199999999999996 10.9  52.099999999999994 9.3L 52.099999999999994 9.3Q 51.3 16.6  48.55 20.8Q 45.8 25  41.699999999999996 25L 41.699999999999996 25ZM 33.099999999999994 0L 46.69999999999999-63.6L 61.499999999999986-65.6L 54.39999999999999-32.2Q 59.19999999999999-32.6  63.249999999999986-36.4Q 67.3-40.2  69.6-45.8Q 71.89999999999999-51.4  71.89999999999999-56.8L 71.89999999999999-56.8Q 71.89999999999999-62.8  68.8-66.6Q 65.69999999999999-70.4  59.499999999999986-70.4L 59.499999999999986-70.4Q 47.3-70.4  40.44999999999999-64Q 33.599999999999994-57.6  33.599999999999994-46.1L 33.599999999999994-46.1Q 33.599999999999994-42.4  34.29999999999999-40.95Q 34.99999999999999-39.5  34.99999999999999-39.3L 34.99999999999999-39.3Q 29.599999999999994-39.3  26.949999999999992-41.55Q 24.299999999999994-43.8  24.299999999999994-49L 24.299999999999994-49Q 24.299999999999994-55.4  29.54999999999999-61.45Q 34.79999999999999-67.5  42.99999999999999-71.25Q 51.19999999999999-75  59.39999999999999-75L 59.39999999999999-75Q 67.3-75  72.6-72.3Q 77.89999999999999-69.6  80.44999999999999-65.15Q 82.99999999999999-60.7  82.99999999999999-55.3L 82.99999999999999-55.3Q 82.99999999999999-48.8  79.44999999999999-42.6Q 75.89999999999999-36.4  69.3-32.45Q 62.69999999999999-28.5  54.099999999999994-28.5L 54.099999999999994-28.5L 53.599999999999994-28.5L 47.49999999999999 0L 33.099999999999994 0Z"></path></svg>